<mxfile host="app.diagrams.net" modified="2021-05-08T12:02:01.428Z" agent="5.0 (Macintosh; Intel Mac OS X 10_15_7) AppleWebKit/537.36 (KHTML, like Gecko) Chrome/90.0.4430.93 Safari/537.36" etag="RTXtkHiAPVQNlhPw0iKP" version="14.6.6" type="github">
  <diagram id="GYiH3a7vK1oOKCzfAaTV" name="Page-1">
    <mxGraphModel dx="850" dy="502" grid="1" gridSize="10" guides="1" tooltips="1" connect="1" arrows="1" fold="1" page="0" pageScale="1" pageWidth="827" pageHeight="1169" math="0" shadow="0">
      <root>
        <mxCell id="0" />
        <mxCell id="1" parent="0" />
        <mxCell id="eQzSi57OZZ5EPF46wHgy-8" value="" style="rounded=0;whiteSpace=wrap;html=1;" vertex="1" parent="1">
          <mxGeometry x="640" y="120" width="120" height="160" as="geometry" />
        </mxCell>
        <mxCell id="eQzSi57OZZ5EPF46wHgy-20" value="" style="rounded=1;whiteSpace=wrap;html=1;fillColor=none;dashed=1;strokeWidth=2;" vertex="1" parent="1">
          <mxGeometry x="620" y="300" width="160" height="80" as="geometry" />
        </mxCell>
        <mxCell id="eQzSi57OZZ5EPF46wHgy-18" value="" style="rounded=1;whiteSpace=wrap;html=1;fillColor=none;dashed=1;strokeWidth=2;" vertex="1" parent="1">
          <mxGeometry x="220" y="300" width="350" height="120" as="geometry" />
        </mxCell>
        <mxCell id="eQzSi57OZZ5EPF46wHgy-19" value="" style="rounded=1;whiteSpace=wrap;html=1;fillColor=none;dashed=1;strokeWidth=2;" vertex="1" parent="1">
          <mxGeometry x="420" y="305" width="140" height="110" as="geometry" />
        </mxCell>
        <mxCell id="eQzSi57OZZ5EPF46wHgy-21" style="edgeStyle=orthogonalEdgeStyle;rounded=0;orthogonalLoop=1;jettySize=auto;html=1;exitX=1;exitY=0.5;exitDx=0;exitDy=0;entryX=0;entryY=0.5;entryDx=0;entryDy=0;" edge="1" parent="1" source="eQzSi57OZZ5EPF46wHgy-1" target="eQzSi57OZZ5EPF46wHgy-6">
          <mxGeometry relative="1" as="geometry" />
        </mxCell>
        <mxCell id="eQzSi57OZZ5EPF46wHgy-1" value="" style="rounded=0;whiteSpace=wrap;html=1;" vertex="1" parent="1">
          <mxGeometry x="230" y="120" width="120" height="160" as="geometry" />
        </mxCell>
        <mxCell id="eQzSi57OZZ5EPF46wHgy-5" style="edgeStyle=orthogonalEdgeStyle;rounded=0;orthogonalLoop=1;jettySize=auto;html=1;exitX=0.5;exitY=1;exitDx=0;exitDy=0;" edge="1" parent="1" source="eQzSi57OZZ5EPF46wHgy-2" target="eQzSi57OZZ5EPF46wHgy-3">
          <mxGeometry relative="1" as="geometry" />
        </mxCell>
        <mxCell id="eQzSi57OZZ5EPF46wHgy-2" value="&lt;font style=&quot;font-size: 18px&quot;&gt;信息正文&lt;/font&gt;" style="rounded=0;whiteSpace=wrap;html=1;" vertex="1" parent="1">
          <mxGeometry x="240" y="140" width="100" height="40" as="geometry" />
        </mxCell>
        <mxCell id="eQzSi57OZZ5EPF46wHgy-3" value="&lt;font style=&quot;font-size: 18px&quot;&gt;签名&lt;/font&gt;" style="rounded=0;whiteSpace=wrap;html=1;" vertex="1" parent="1">
          <mxGeometry x="240" y="230" width="100" height="40" as="geometry" />
        </mxCell>
        <mxCell id="eQzSi57OZZ5EPF46wHgy-4" value="&lt;font style=&quot;font-size: 18px&quot;&gt;发送信息&lt;/font&gt;" style="text;html=1;strokeColor=none;fillColor=none;align=center;verticalAlign=middle;whiteSpace=wrap;rounded=0;" vertex="1" parent="1">
          <mxGeometry x="250" y="90" width="80" height="20" as="geometry" />
        </mxCell>
        <mxCell id="eQzSi57OZZ5EPF46wHgy-23" style="edgeStyle=orthogonalEdgeStyle;rounded=0;orthogonalLoop=1;jettySize=auto;html=1;exitX=1;exitY=0.5;exitDx=0;exitDy=0;" edge="1" parent="1" source="eQzSi57OZZ5EPF46wHgy-6" target="eQzSi57OZZ5EPF46wHgy-8">
          <mxGeometry relative="1" as="geometry" />
        </mxCell>
        <mxCell id="eQzSi57OZZ5EPF46wHgy-6" value="" style="rounded=0;whiteSpace=wrap;html=1;" vertex="1" parent="1">
          <mxGeometry x="430" y="120" width="120" height="160" as="geometry" />
        </mxCell>
        <mxCell id="eQzSi57OZZ5EPF46wHgy-7" value="&lt;font style=&quot;font-size: 18px&quot;&gt;加密后的信息&lt;/font&gt;" style="rounded=0;whiteSpace=wrap;html=1;" vertex="1" parent="1">
          <mxGeometry x="450" y="135" width="80" height="130" as="geometry" />
        </mxCell>
        <mxCell id="eQzSi57OZZ5EPF46wHgy-40" style="edgeStyle=orthogonalEdgeStyle;rounded=0;orthogonalLoop=1;jettySize=auto;html=1;exitX=0.5;exitY=1;exitDx=0;exitDy=0;entryX=0.5;entryY=0;entryDx=0;entryDy=0;startArrow=none;startFill=0;" edge="1" parent="1" source="eQzSi57OZZ5EPF46wHgy-10" target="eQzSi57OZZ5EPF46wHgy-38">
          <mxGeometry relative="1" as="geometry" />
        </mxCell>
        <mxCell id="eQzSi57OZZ5EPF46wHgy-10" value="&lt;font style=&quot;font-size: 18px&quot;&gt;信息正文&lt;/font&gt;" style="rounded=0;whiteSpace=wrap;html=1;" vertex="1" parent="1">
          <mxGeometry x="650" y="140" width="100" height="40" as="geometry" />
        </mxCell>
        <mxCell id="eQzSi57OZZ5EPF46wHgy-37" style="edgeStyle=orthogonalEdgeStyle;rounded=0;orthogonalLoop=1;jettySize=auto;html=1;exitX=1;exitY=0.5;exitDx=0;exitDy=0;entryX=0.5;entryY=1;entryDx=0;entryDy=0;" edge="1" parent="1" source="eQzSi57OZZ5EPF46wHgy-11" target="eQzSi57OZZ5EPF46wHgy-36">
          <mxGeometry relative="1" as="geometry" />
        </mxCell>
        <mxCell id="eQzSi57OZZ5EPF46wHgy-11" value="&lt;font style=&quot;font-size: 18px&quot;&gt;签名&lt;/font&gt;" style="rounded=0;whiteSpace=wrap;html=1;" vertex="1" parent="1">
          <mxGeometry x="650" y="230" width="100" height="40" as="geometry" />
        </mxCell>
        <mxCell id="eQzSi57OZZ5EPF46wHgy-12" value="&lt;font style=&quot;font-size: 18px&quot;&gt;发送信息&lt;/font&gt;" style="text;html=1;strokeColor=none;fillColor=none;align=center;verticalAlign=middle;whiteSpace=wrap;rounded=0;" vertex="1" parent="1">
          <mxGeometry x="660" y="90" width="80" height="20" as="geometry" />
        </mxCell>
        <mxCell id="eQzSi57OZZ5EPF46wHgy-13" value="&lt;font style=&quot;font-size: 18px&quot;&gt;传送中的信息&lt;/font&gt;" style="text;html=1;strokeColor=none;fillColor=none;align=center;verticalAlign=middle;whiteSpace=wrap;rounded=0;" vertex="1" parent="1">
          <mxGeometry x="430" y="90" width="120" height="20" as="geometry" />
        </mxCell>
        <mxCell id="eQzSi57OZZ5EPF46wHgy-14" value="&lt;font style=&quot;font-size: 16px&quot;&gt;发送人公钥&lt;/font&gt;" style="rounded=0;whiteSpace=wrap;html=1;" vertex="1" parent="1">
          <mxGeometry x="240" y="340" width="110" height="40" as="geometry" />
        </mxCell>
        <mxCell id="eQzSi57OZZ5EPF46wHgy-45" style="edgeStyle=orthogonalEdgeStyle;rounded=0;orthogonalLoop=1;jettySize=auto;html=1;exitX=1;exitY=0.75;exitDx=0;exitDy=0;startArrow=none;startFill=0;" edge="1" parent="1" source="eQzSi57OZZ5EPF46wHgy-15">
          <mxGeometry relative="1" as="geometry">
            <mxPoint x="820" y="250" as="targetPoint" />
            <Array as="points">
              <mxPoint x="820" y="390" />
            </Array>
          </mxGeometry>
        </mxCell>
        <mxCell id="eQzSi57OZZ5EPF46wHgy-15" value="&lt;font style=&quot;font-size: 16px&quot;&gt;发送人公钥&lt;/font&gt;" style="rounded=0;whiteSpace=wrap;html=1;" vertex="1" parent="1">
          <mxGeometry x="435" y="360" width="110" height="40" as="geometry" />
        </mxCell>
        <mxCell id="eQzSi57OZZ5EPF46wHgy-32" style="edgeStyle=orthogonalEdgeStyle;rounded=0;orthogonalLoop=1;jettySize=auto;html=1;exitX=0;exitY=0.5;exitDx=0;exitDy=0;entryX=0.5;entryY=1;entryDx=0;entryDy=0;" edge="1" parent="1" source="eQzSi57OZZ5EPF46wHgy-16" target="eQzSi57OZZ5EPF46wHgy-24">
          <mxGeometry relative="1" as="geometry" />
        </mxCell>
        <mxCell id="eQzSi57OZZ5EPF46wHgy-16" value="&lt;font style=&quot;font-size: 16px&quot;&gt;接收人公钥&lt;/font&gt;" style="rounded=0;whiteSpace=wrap;html=1;" vertex="1" parent="1">
          <mxGeometry x="435" y="320" width="110" height="40" as="geometry" />
        </mxCell>
        <mxCell id="eQzSi57OZZ5EPF46wHgy-34" style="edgeStyle=orthogonalEdgeStyle;rounded=0;orthogonalLoop=1;jettySize=auto;html=1;exitX=0;exitY=0.5;exitDx=0;exitDy=0;" edge="1" parent="1" source="eQzSi57OZZ5EPF46wHgy-17">
          <mxGeometry relative="1" as="geometry">
            <mxPoint x="590" y="200" as="targetPoint" />
          </mxGeometry>
        </mxCell>
        <mxCell id="eQzSi57OZZ5EPF46wHgy-17" value="&lt;font style=&quot;font-size: 16px&quot;&gt;接收人公钥&lt;/font&gt;" style="rounded=0;whiteSpace=wrap;html=1;" vertex="1" parent="1">
          <mxGeometry x="645" y="320" width="110" height="40" as="geometry" />
        </mxCell>
        <mxCell id="eQzSi57OZZ5EPF46wHgy-26" style="edgeStyle=orthogonalEdgeStyle;rounded=0;orthogonalLoop=1;jettySize=auto;html=1;exitX=0;exitY=0.5;exitDx=0;exitDy=0;entryX=0;entryY=0.5;entryDx=0;entryDy=0;" edge="1" parent="1" source="eQzSi57OZZ5EPF46wHgy-18" target="eQzSi57OZZ5EPF46wHgy-27">
          <mxGeometry relative="1" as="geometry">
            <mxPoint x="180" y="210" as="targetPoint" />
            <Array as="points">
              <mxPoint x="170" y="360" />
              <mxPoint x="170" y="200" />
            </Array>
          </mxGeometry>
        </mxCell>
        <mxCell id="eQzSi57OZZ5EPF46wHgy-24" value="&lt;font style=&quot;font-size: 14px&quot;&gt;1. 哈希计算&lt;/font&gt;" style="text;html=1;strokeColor=none;fillColor=none;align=center;verticalAlign=middle;whiteSpace=wrap;rounded=0;dashed=1;" vertex="1" parent="1">
          <mxGeometry x="350" y="180" width="80" height="20" as="geometry" />
        </mxCell>
        <mxCell id="eQzSi57OZZ5EPF46wHgy-27" value="&lt;font style=&quot;font-size: 14px&quot;&gt;&lt;b&gt;摘要&lt;/b&gt;&lt;/font&gt;" style="text;html=1;strokeColor=none;fillColor=none;align=center;verticalAlign=middle;whiteSpace=wrap;rounded=0;dashed=1;" vertex="1" parent="1">
          <mxGeometry x="240" y="190" width="40" height="20" as="geometry" />
        </mxCell>
        <mxCell id="eQzSi57OZZ5EPF46wHgy-29" value="&lt;font style=&quot;font-size: 14px&quot;&gt;2.&lt;br&gt;加&lt;br&gt;密&lt;br&gt;摘&lt;br&gt;要&lt;/font&gt;" style="text;html=1;strokeColor=none;fillColor=none;align=center;verticalAlign=middle;whiteSpace=wrap;rounded=0;dashed=1;" vertex="1" parent="1">
          <mxGeometry x="170" y="240" width="40" height="70" as="geometry" />
        </mxCell>
        <mxCell id="eQzSi57OZZ5EPF46wHgy-33" value="&lt;font style=&quot;font-size: 14px&quot;&gt;3.&lt;br&gt;加&lt;br&gt;密&lt;br&gt;信&lt;br&gt;息&lt;br&gt;&lt;/font&gt;" style="text;html=1;strokeColor=none;fillColor=none;align=center;verticalAlign=middle;whiteSpace=wrap;rounded=0;dashed=1;" vertex="1" parent="1">
          <mxGeometry x="380" y="215" width="40" height="70" as="geometry" />
        </mxCell>
        <mxCell id="eQzSi57OZZ5EPF46wHgy-35" value="&lt;font style=&quot;font-size: 14px&quot;&gt;4.&lt;br&gt;解&lt;br&gt;密&lt;br&gt;信&lt;br&gt;息&lt;br&gt;&lt;/font&gt;" style="text;html=1;strokeColor=none;fillColor=none;align=center;verticalAlign=middle;whiteSpace=wrap;rounded=0;dashed=1;" vertex="1" parent="1">
          <mxGeometry x="580" y="215" width="40" height="70" as="geometry" />
        </mxCell>
        <mxCell id="eQzSi57OZZ5EPF46wHgy-36" value="&lt;font style=&quot;font-size: 14px&quot;&gt;&lt;b&gt;计算的摘要&lt;/b&gt;&lt;/font&gt;" style="text;html=1;strokeColor=none;fillColor=none;align=center;verticalAlign=middle;whiteSpace=wrap;rounded=0;dashed=1;" vertex="1" parent="1">
          <mxGeometry x="830" y="200" width="90" height="20" as="geometry" />
        </mxCell>
        <mxCell id="eQzSi57OZZ5EPF46wHgy-39" style="edgeStyle=orthogonalEdgeStyle;rounded=0;orthogonalLoop=1;jettySize=auto;html=1;exitX=1;exitY=0.5;exitDx=0;exitDy=0;entryX=0;entryY=0.5;entryDx=0;entryDy=0;startArrow=classic;startFill=1;" edge="1" parent="1" source="eQzSi57OZZ5EPF46wHgy-38" target="eQzSi57OZZ5EPF46wHgy-36">
          <mxGeometry relative="1" as="geometry" />
        </mxCell>
        <mxCell id="eQzSi57OZZ5EPF46wHgy-38" value="&lt;font style=&quot;font-size: 14px&quot;&gt;&lt;b&gt;原摘要&lt;/b&gt;&lt;/font&gt;" style="text;html=1;strokeColor=none;fillColor=none;align=center;verticalAlign=middle;whiteSpace=wrap;rounded=0;dashed=1;" vertex="1" parent="1">
          <mxGeometry x="670" y="200" width="60" height="20" as="geometry" />
        </mxCell>
        <mxCell id="eQzSi57OZZ5EPF46wHgy-42" value="&lt;font style=&quot;font-size: 14px&quot;&gt;5. 哈希计算&lt;/font&gt;" style="text;html=1;strokeColor=none;fillColor=none;align=center;verticalAlign=middle;whiteSpace=wrap;rounded=0;dashed=1;" vertex="1" parent="1">
          <mxGeometry x="760" y="180" width="80" height="20" as="geometry" />
        </mxCell>
        <mxCell id="eQzSi57OZZ5EPF46wHgy-43" value="&lt;font style=&quot;font-size: 14px&quot;&gt;7. 对比摘要&lt;/font&gt;" style="text;html=1;strokeColor=none;fillColor=none;align=center;verticalAlign=middle;whiteSpace=wrap;rounded=0;dashed=1;" vertex="1" parent="1">
          <mxGeometry x="760" y="220" width="80" height="20" as="geometry" />
        </mxCell>
        <mxCell id="eQzSi57OZZ5EPF46wHgy-44" value="&lt;font style=&quot;font-size: 14px&quot;&gt;6. 解密签名&lt;/font&gt;" style="text;html=1;strokeColor=none;fillColor=none;align=center;verticalAlign=middle;whiteSpace=wrap;rounded=0;dashed=1;" vertex="1" parent="1">
          <mxGeometry x="740" y="395" width="80" height="20" as="geometry" />
        </mxCell>
      </root>
    </mxGraphModel>
  </diagram>
</mxfile>
